<svg xmlns="http://www.w3.org/2000/svg" viewBox="0 0 280 64">
  <!-- Vehicule sport vue de face -->
  <circle cx="32" cy="32" r="32" fill="#67BD23"/>
  <path d="M 18 24 Q 20 12 28 11 L 36 11 Q 44 12 46 24 Z" fill="#ffffff"/>
  <path d="M 22 23 Q 25 15 30 14 L 34 14 Q 39 15 42 23 Z" fill="#0E1922" fill-opacity="0.65"/>
  <path d="M 4 24 L 60 24 Q 62 24 62 26 L 62 48 Q 62 54 56 54 L 8 54 Q 2 54 2 48 L 2 26 Q 2 24 4 24 Z" fill="#ffffff"/>
  <path d="M 2 30 L 24 31 L 24 34 L 2 33 Z" fill="#0E1922"/>
  <path d="M 40 31 L 62 30 L 62 33 L 40 34 Z" fill="#0E1922"/>
  <rect x="4" y="31.5" width="18" height="1.2" rx="0.5" fill="#FEF3C7"/>
  <rect x="42" y="31.5" width="18" height="1.2" rx="0.5" fill="#FEF3C7"/>
  <path d="M 4 35.5 L 22 36.5" stroke="#67BD23" stroke-width="1.4" stroke-linecap="round"/>
  <path d="M 42 36.5 L 60 35.5" stroke="#67BD23" stroke-width="1.4" stroke-linecap="round"/>
  <path d="M 22 40 L 42 40 L 48 52 L 16 52 Z" fill="#0E1922"/>
  <line x1="20" y1="43" x2="44" y2="43" stroke="#67BD23" stroke-width="0.6" opacity="0.8"/>
  <line x1="19" y1="46" x2="45" y2="46" stroke="#67BD23" stroke-width="0.6" opacity="0.6"/>
  <path d="M 4 44 Q 8 43 12 45" stroke="#0E1922" stroke-width="1.5" stroke-linecap="round" fill="none"/>
  <path d="M 52 45 Q 56 43 60 44" stroke="#0E1922" stroke-width="1.5" stroke-linecap="round" fill="none"/>

  <!-- Wordmark -->
  <text x="78" y="30" font-family="'DM Sans', 'Manrope', system-ui, sans-serif" font-size="22" font-weight="800" fill="#0E1922" letter-spacing="-0.5">Meilleur</text>
  <text x="78" y="52" font-family="'DM Sans', 'Manrope', system-ui, sans-serif" font-size="15" font-weight="700" fill="#67BD23" letter-spacing="2">TRANSPORT</text>
</svg>
