<svg xmlns="http://www.w3.org/2000/svg" viewBox="0 0 280 64">
  <!-- Icon vehicule face avant -->
  <circle cx="32" cy="32" r="32" fill="#67BD23"/>
  <path d="M 18 28 Q 18 17 27 15 L 37 15 Q 46 17 46 28 Z" fill="#ffffff"/>
  <path d="M 22 26 Q 25 19 29 18 L 35 18 Q 39 19 42 26 Z" fill="#0E1922" fill-opacity="0.55"/>
  <path d="M 10 28 L 54 28 Q 56 28 56 30 L 56 44 Q 56 48 52 48 L 12 48 Q 8 48 8 44 L 8 30 Q 8 28 10 28 Z" fill="#ffffff"/>
  <path d="M 10 32 L 24 33 L 24 37 L 10 36 Z" fill="#0E1922"/>
  <path d="M 40 33 L 54 32 L 54 36 L 40 37 Z" fill="#0E1922"/>
  <rect x="12" y="33.5" width="10" height="1.2" rx="0.6" fill="#FEF3C7"/>
  <rect x="42" y="33.5" width="10" height="1.2" rx="0.6" fill="#FEF3C7"/>
  <path d="M 26 39 L 38 39 L 40 44 L 24 44 Z" fill="#0E1922"/>
  <line x1="25.5" y1="41" x2="38.5" y2="41" stroke="#67BD23" stroke-width="0.5" opacity="0.7"/>
  <line x1="26" y1="42.5" x2="38" y2="42.5" stroke="#67BD23" stroke-width="0.5" opacity="0.7"/>
  <circle cx="14" cy="45" r="1.5" fill="#67BD23"/>
  <circle cx="50" cy="45" r="1.5" fill="#67BD23"/>

  <!-- Wordmark -->
  <text x="78" y="30" font-family="'DM Sans', 'Manrope', system-ui, sans-serif" font-size="22" font-weight="800" fill="#0E1922" letter-spacing="-0.5">Meilleur</text>
  <text x="78" y="52" font-family="'DM Sans', 'Manrope', system-ui, sans-serif" font-size="15" font-weight="700" fill="#67BD23" letter-spacing="2">TRANSPORT</text>
</svg>
